<mxfile host="app.diagrams.net" modified="2023-11-30T20:41:56.412Z" agent="Mozilla/5.0 (Macintosh; Intel Mac OS X 10_15_7) AppleWebKit/537.36 (KHTML, like Gecko) Chrome/119.0.0.0 Safari/537.36" version="21.1.4" etag="ff3DnKDQ9cuS2R8-3iIw" type="github">
  <diagram name="Page-1" id="OJkbDL1N28A6kZnmKTbv">
    <mxGraphModel>
      <root>
        <mxCell id="0" />
        <mxCell id="1" parent="0" />
      </root>
    </mxGraphModel>
  </diagram>
</mxfile>
